<svg width="63" height="50" viewBox="0 0 63 50" fill="none" xmlns="http://www.w3.org/2000/svg">
<path d="M2.21169 41.6C1.89169 41.6 1.60635 41.5307 1.35569 41.392C1.11035 41.248 0.918354 41.0533 0.779688 40.808C0.641021 40.5573 0.571688 40.272 0.571688 39.952C0.571688 39.6373 0.641021 39.3547 0.779688 39.104C0.918354 38.8533 1.11035 38.6587 1.35569 38.52C1.60635 38.376 1.89169 38.304 2.21169 38.304C2.52635 38.304 2.80635 38.376 3.05169 38.52C3.30235 38.6587 3.49702 38.8533 3.63569 39.104C3.77435 39.3547 3.84369 39.6373 3.84369 39.952C3.84369 40.272 3.77435 40.5573 3.63569 40.808C3.49702 41.0533 3.30235 41.248 3.05169 41.392C2.80635 41.5307 2.52635 41.6 2.21169 41.6ZM2.21169 41.272C2.59569 41.272 2.90502 41.1493 3.13969 40.904C3.37435 40.6587 3.49169 40.3413 3.49169 39.952C3.49169 39.568 3.37435 39.2533 3.13969 39.008C2.90502 38.7627 2.59569 38.64 2.21169 38.64C1.82235 38.64 1.51035 38.7627 1.27569 39.008C1.04102 39.2533 0.923688 39.568 0.923688 39.952C0.923688 40.3413 1.04102 40.6587 1.27569 40.904C1.51035 41.1493 1.82235 41.272 2.21169 41.272ZM1.54769 40.792V39.08H2.34769C2.52369 39.08 2.66502 39.128 2.77169 39.224C2.87835 39.32 2.93169 39.4507 2.93169 39.616C2.93169 39.8773 2.80635 40.0453 2.55569 40.12L3.00369 40.792H2.50769L2.11569 40.144H1.97169V40.792H1.54769ZM1.97169 39.824H2.29169C2.35035 39.824 2.40102 39.8107 2.44369 39.784C2.48635 39.752 2.50769 39.7013 2.50769 39.632C2.50769 39.568 2.48635 39.5227 2.44369 39.496C2.40102 39.4693 2.35035 39.456 2.29169 39.456H1.97169V39.824ZM6.81019 44V38.4H8.92219C9.50352 38.4 9.94352 38.536 10.2422 38.808C10.5409 39.08 10.6902 39.4213 10.6902 39.832C10.6902 40.1893 10.5942 40.4747 10.4022 40.688C10.2102 40.896 9.97819 41.0373 9.70619 41.112C9.91952 41.1547 10.1089 41.24 10.2742 41.368C10.4449 41.496 10.5782 41.656 10.6742 41.848C10.7702 42.04 10.8182 42.248 10.8182 42.472C10.8182 42.76 10.7462 43.0213 10.6022 43.256C10.4635 43.4853 10.2582 43.6667 9.98619 43.8C9.71419 43.9333 9.38085 44 8.98619 44H6.81019ZM7.65819 40.8H8.81819C9.14352 40.8 9.39152 40.7253 9.56219 40.576C9.73285 40.4213 9.81819 40.2107 9.81819 39.944C9.81819 39.6827 9.73285 39.4747 9.56219 39.32C9.39685 39.1653 9.14352 39.088 8.80219 39.088H7.65819V40.8ZM7.65819 43.304H8.87419C9.21552 43.304 9.47952 43.224 9.66619 43.064C9.85819 42.904 9.95419 42.68 9.95419 42.392C9.95419 42.104 9.85552 41.8773 9.65819 41.712C9.46085 41.5413 9.19419 41.456 8.85819 41.456H7.65819V43.304ZM13.0597 44.096C12.7237 44.096 12.4464 44.04 12.2277 43.928C12.009 43.816 11.8464 43.6693 11.7397 43.488C11.633 43.3013 11.5797 43.0987 11.5797 42.88C11.5797 42.496 11.729 42.192 12.0277 41.968C12.3264 41.744 12.753 41.632 13.3077 41.632H14.3477V41.56C14.3477 41.2507 14.2624 41.0187 14.0917 40.864C13.9264 40.7093 13.7104 40.632 13.4437 40.632C13.209 40.632 13.0037 40.6907 12.8277 40.808C12.657 40.92 12.553 41.088 12.5157 41.312H11.6677C11.6944 41.024 11.7904 40.7787 11.9557 40.576C12.1264 40.368 12.3397 40.2107 12.5957 40.104C12.857 39.992 13.1424 39.936 13.4517 39.936C14.0064 39.936 14.4357 40.0827 14.7397 40.376C15.0437 40.664 15.1957 41.0587 15.1957 41.56V44H14.4597L14.3877 43.32C14.2757 43.5387 14.113 43.7227 13.8997 43.872C13.6864 44.0213 13.4064 44.096 13.0597 44.096ZM13.2277 43.408C13.457 43.408 13.649 43.3547 13.8037 43.248C13.9637 43.136 14.0864 42.9893 14.1717 42.808C14.2624 42.6267 14.3184 42.4267 14.3397 42.208H13.3957C13.0597 42.208 12.8197 42.2667 12.6757 42.384C12.537 42.5013 12.4677 42.648 12.4677 42.824C12.4677 43.0053 12.5344 43.1493 12.6677 43.256C12.8064 43.3573 12.993 43.408 13.2277 43.408ZM17.7703 44C17.381 44 17.0716 43.9067 16.8423 43.72C16.613 43.528 16.4983 43.1893 16.4983 42.704V40.744H15.8183V40.032H16.4983L16.6023 39.024H17.3463V40.032H18.4663V40.744H17.3463V42.704C17.3463 42.9227 17.3916 43.0747 17.4823 43.16C17.5783 43.24 17.741 43.28 17.9703 43.28H18.4263V44H17.7703ZM20.6847 44.096C20.3487 44.096 20.0714 44.04 19.8527 43.928C19.634 43.816 19.4714 43.6693 19.3647 43.488C19.258 43.3013 19.2047 43.0987 19.2047 42.88C19.2047 42.496 19.354 42.192 19.6527 41.968C19.9514 41.744 20.378 41.632 20.9327 41.632H21.9727V41.56C21.9727 41.2507 21.8874 41.0187 21.7167 40.864C21.5514 40.7093 21.3354 40.632 21.0687 40.632C20.834 40.632 20.6287 40.6907 20.4527 40.808C20.282 40.92 20.178 41.088 20.1407 41.312H19.2927C19.3194 41.024 19.4154 40.7787 19.5807 40.576C19.7514 40.368 19.9647 40.2107 20.2207 40.104C20.482 39.992 20.7674 39.936 21.0767 39.936C21.6314 39.936 22.0607 40.0827 22.3647 40.376C22.6687 40.664 22.8207 41.0587 22.8207 41.56V44H22.0847L22.0127 43.32C21.9007 43.5387 21.738 43.7227 21.5247 43.872C21.3114 44.0213 21.0314 44.096 20.6847 44.096ZM20.8527 43.408C21.082 43.408 21.274 43.3547 21.4287 43.248C21.5887 43.136 21.7114 42.9893 21.7967 42.808C21.8874 42.6267 21.9434 42.4267 21.9647 42.208H21.0207C20.6847 42.208 20.4447 42.2667 20.3007 42.384C20.162 42.5013 20.0927 42.648 20.0927 42.824C20.0927 43.0053 20.1594 43.1493 20.2927 43.256C20.4314 43.3573 20.618 43.408 20.8527 43.408ZM25.3953 44C25.006 44 24.6966 43.9067 24.4673 43.72C24.238 43.528 24.1233 43.1893 24.1233 42.704V40.744H23.4433V40.032H24.1233L24.2273 39.024H24.9713V40.032H26.0913V40.744H24.9713V42.704C24.9713 42.9227 25.0166 43.0747 25.1073 43.16C25.2033 43.24 25.366 43.28 25.5953 43.28H26.0513V44H25.3953ZM28.3097 44.096C27.9737 44.096 27.6964 44.04 27.4777 43.928C27.259 43.816 27.0964 43.6693 26.9897 43.488C26.883 43.3013 26.8297 43.0987 26.8297 42.88C26.8297 42.496 26.979 42.192 27.2777 41.968C27.5764 41.744 28.003 41.632 28.5577 41.632H29.5977V41.56C29.5977 41.2507 29.5124 41.0187 29.3417 40.864C29.1764 40.7093 28.9604 40.632 28.6937 40.632C28.459 40.632 28.2537 40.6907 28.0777 40.808C27.907 40.92 27.803 41.088 27.7657 41.312H26.9177C26.9444 41.024 27.0404 40.7787 27.2057 40.576C27.3764 40.368 27.5897 40.2107 27.8457 40.104C28.107 39.992 28.3924 39.936 28.7017 39.936C29.2564 39.936 29.6857 40.0827 29.9897 40.376C30.2937 40.664 30.4457 41.0587 30.4457 41.56V44H29.7097L29.6377 43.32C29.5257 43.5387 29.363 43.7227 29.1497 43.872C28.9364 44.0213 28.6564 44.096 28.3097 44.096ZM28.4777 43.408C28.707 43.408 28.899 43.3547 29.0537 43.248C29.2137 43.136 29.3364 42.9893 29.4217 42.808C29.5124 42.6267 29.5684 42.4267 29.5897 42.208H28.6457C28.3097 42.208 28.0697 42.2667 27.9257 42.384C27.787 42.5013 27.7177 42.648 27.7177 42.824C27.7177 43.0053 27.7844 43.1493 27.9177 43.256C28.0564 43.3573 28.243 43.408 28.4777 43.408ZM33.6664 44.096C33.3571 44.096 33.0824 44.0347 32.8424 43.912C32.6078 43.7893 32.4211 43.616 32.2824 43.392L32.1944 44H31.4344V38.24H32.2824V40.648C32.4104 40.4613 32.5864 40.296 32.8104 40.152C33.0344 40.008 33.3224 39.936 33.6744 39.936C34.0584 39.936 34.3971 40.0267 34.6904 40.208C34.9838 40.3893 35.2131 40.6373 35.3784 40.952C35.5491 41.2667 35.6344 41.624 35.6344 42.024C35.6344 42.424 35.5491 42.7813 35.3784 43.096C35.2131 43.4053 34.9838 43.6507 34.6904 43.832C34.3971 44.008 34.0558 44.096 33.6664 44.096ZM33.5224 43.36C33.8851 43.36 34.1838 43.2373 34.4184 42.992C34.6531 42.7413 34.7704 42.416 34.7704 42.016C34.7704 41.7547 34.7171 41.5227 34.6104 41.32C34.5038 41.1173 34.3571 40.96 34.1704 40.848C33.9838 40.7307 33.7678 40.672 33.5224 40.672C33.1598 40.672 32.8611 40.7973 32.6264 41.048C32.3971 41.2987 32.2824 41.6213 32.2824 42.016C32.2824 42.416 32.3971 42.7413 32.6264 42.992C32.8611 43.2373 33.1598 43.36 33.5224 43.36ZM37.0316 39.28C36.8716 39.28 36.7383 39.232 36.6316 39.136C36.5303 39.0347 36.4796 38.9093 36.4796 38.76C36.4796 38.6107 36.5303 38.488 36.6316 38.392C36.7383 38.2907 36.8716 38.24 37.0316 38.24C37.1916 38.24 37.3223 38.2907 37.4236 38.392C37.5303 38.488 37.5836 38.6107 37.5836 38.76C37.5836 38.9093 37.5303 39.0347 37.4236 39.136C37.3223 39.232 37.1916 39.28 37.0316 39.28ZM36.6076 44V40.032H37.4556V44H36.6076ZM40.2391 44C39.8497 44 39.5404 43.9067 39.3111 43.72C39.0817 43.528 38.9671 43.1893 38.9671 42.704V40.744H38.2871V40.032H38.9671L39.0711 39.024H39.8151V40.032H40.9351V40.744H39.8151V42.704C39.8151 42.9227 39.8604 43.0747 39.9511 43.16C40.0471 43.24 40.2097 43.28 40.4391 43.28H40.8951V44H40.2391ZM43.7451 44V43.392C44.1077 43.104 44.4544 42.8133 44.7851 42.52C45.1157 42.2267 45.4091 41.9387 45.6651 41.656C45.9264 41.368 46.1317 41.088 46.2811 40.816C46.4304 40.5387 46.5051 40.272 46.5051 40.016C46.5051 39.8453 46.4757 39.6853 46.4171 39.536C46.3584 39.3813 46.2624 39.2587 46.1291 39.168C45.9957 39.072 45.8171 39.024 45.5931 39.024C45.2571 39.024 45.0037 39.1307 44.8331 39.344C44.6677 39.5573 44.5877 39.8133 44.5931 40.112H43.7691C43.7744 39.7173 43.8571 39.3867 44.0171 39.12C44.1824 38.8533 44.4011 38.6507 44.6731 38.512C44.9504 38.3733 45.2624 38.304 45.6091 38.304C46.1371 38.304 46.5584 38.4533 46.8731 38.752C47.1931 39.0453 47.3531 39.456 47.3531 39.984C47.3531 40.2987 47.2757 40.6107 47.1211 40.92C46.9717 41.2293 46.7744 41.528 46.5291 41.816C46.2891 42.0987 46.0304 42.3653 45.7531 42.616C45.4757 42.8667 45.2117 43.0933 44.9611 43.296H47.5211V44H43.7451ZM50.6127 44.096C50.106 44.096 49.6687 43.976 49.3007 43.736C48.938 43.4907 48.658 43.152 48.4607 42.72C48.2687 42.2827 48.1727 41.776 48.1727 41.2C48.1727 40.624 48.2687 40.12 48.4607 39.688C48.658 39.2507 48.938 38.912 49.3007 38.672C49.6687 38.4267 50.106 38.304 50.6127 38.304C51.1194 38.304 51.554 38.4267 51.9167 38.672C52.2794 38.912 52.5567 39.2507 52.7487 39.688C52.946 40.12 53.0447 40.624 53.0447 41.2C53.0447 41.776 52.946 42.2827 52.7487 42.72C52.5567 43.152 52.2794 43.4907 51.9167 43.736C51.554 43.976 51.1194 44.096 50.6127 44.096ZM50.6127 43.336C50.9167 43.336 51.186 43.2507 51.4207 43.08C51.6607 42.9093 51.8474 42.664 51.9807 42.344C52.114 42.024 52.1807 41.6427 52.1807 41.2C52.1807 40.7573 52.114 40.376 51.9807 40.056C51.8474 39.736 51.6607 39.4907 51.4207 39.32C51.186 39.1493 50.9167 39.064 50.6127 39.064C50.3034 39.064 50.0314 39.1493 49.7967 39.32C49.562 39.4907 49.378 39.736 49.2447 40.056C49.1114 40.376 49.0447 40.7573 49.0447 41.2C49.0447 41.6427 49.1114 42.024 49.2447 42.344C49.378 42.664 49.562 42.9093 49.7967 43.08C50.0314 43.2507 50.3034 43.336 50.6127 43.336ZM53.8154 44V43.392C54.178 43.104 54.5247 42.8133 54.8554 42.52C55.186 42.2267 55.4794 41.9387 55.7354 41.656C55.9967 41.368 56.202 41.088 56.3514 40.816C56.5007 40.5387 56.5754 40.272 56.5754 40.016C56.5754 39.8453 56.546 39.6853 56.4874 39.536C56.4287 39.3813 56.3327 39.2587 56.1994 39.168C56.066 39.072 55.8874 39.024 55.6634 39.024C55.3274 39.024 55.074 39.1307 54.9034 39.344C54.738 39.5573 54.658 39.8133 54.6634 40.112H53.8394C53.8447 39.7173 53.9274 39.3867 54.0874 39.12C54.2527 38.8533 54.4714 38.6507 54.7434 38.512C55.0207 38.3733 55.3327 38.304 55.6794 38.304C56.2074 38.304 56.6287 38.4533 56.9434 38.752C57.2634 39.0453 57.4234 39.456 57.4234 39.984C57.4234 40.2987 57.346 40.6107 57.1914 40.92C57.042 41.2293 56.8447 41.528 56.5994 41.816C56.3594 42.0987 56.1007 42.3653 55.8234 42.616C55.546 42.8667 55.282 43.0933 55.0314 43.296H57.5914V44H53.8154ZM60.9559 44V42.88H58.1479V42.208L60.8199 38.4H61.7959V42.144H62.5799V42.88H61.7959V44H60.9559ZM59.0679 42.144H61.0039V39.336L59.0679 42.144Z" fill="#E0E0E0"/>
<path d="M27.8906 20.2838C21.4673 22.281 11.0927 20.2399 11.0006 11.3449C10.9084 2.44983 21.9806 7.74852 21.9806 7.74852L27.8906 20.2838Z" fill="#E9E9E9"/>
<path d="M14.1236 6.35426C18.6066 5.58608 22.0113 11.5265 25.7783 17.7232C29.5452 23.92 39.3542 26.3762 45.6218 21.165C51.8893 15.9539 54.542 6.82713 46.8464 1.38317C39.1509 -4.06079 34.3471 8.29872 27.7221 8.63845C21.0972 8.97819 21.0489 4.05367 14.1236 6.35426Z" fill="white"/>
<circle cx="46.1972" cy="11.6219" r="1.96745" fill="white"/>
<circle cx="42.4262" cy="13.0974" r="1.47559" fill="white"/>
<circle cx="45.0495" cy="15.0648" r="1.14768" fill="white"/>
</svg>
